<svg xmlns="http://www.w3.org/2000/svg" viewBox="0 0 512 512" width="512" height="512">
  <rect width="512" height="512" rx="104" fill="#000000"/>
  <g transform="translate(256,256) scale(1.20) translate(-218.1,-198.65)">
    <path d="M307.16,108.22c-33.09,0-58.77,9.09-73.07,32.54h0s-40.6,64.75-65.78,90.61h-.05c-2.5,2.44-10.91,10.5-14.49,12.23-.03.01-.04,0-.07.02-6.71,4.11-14.95,6.26-24.73,6.26-29.36,0-47.79-18.43-47.79-54.27,0-33.8,17.07-48.14,47.79-48.14,18.58,0,33.11,8.71,38.54,15.89.57.75,1.1,1.52,1.61,2.3l37.97-.21s.26-1.36-.47-6.18c-.52-3.42-1.33-6.31-1.31-6.22-11.27-32.44-38.56-44.84-76.33-44.84-51.89,0-85.68,22.19-85.68,87.39s38.58,93.53,85.68,93.53c26.06,0,48.78-8.77,63.72-27.69,13.26-14.29,73.12-96.83,73.12-96.83,7.77-12.03,22.47-17.14,41.35-17.14,30.72,0,47.79,14.34,47.79,48.14,0,35.84-18.43,54.27-47.79,54.27s-47.31-18.03-47.75-53.03l-31.8,39.01c12.65,36.89,43.58,53.28,79.54,53.28,47.11,0,85.69-27.99,85.69-93.53s-33.8-87.39-85.69-87.39Z" fill="#ffffff"/>
  </g>
</svg>
