<?xml version="1.0"?><svg id="Layer_1" xmlns="http://www.w3.org/2000/svg" viewBox="0 0 2160 396"><path d="M307.16,108.22c-33.09,0-58.77,9.09-73.07,32.54h0s-40.6,64.75-65.78,90.61h-.05c-2.5,2.44-10.91,10.5-14.49,12.23-.03.01-.04,0-.07.02-6.71,4.11-14.95,6.26-24.73,6.26-29.36,0-47.79-18.43-47.79-54.27,0-33.8,17.07-48.14,47.79-48.14,18.58,0,33.11,8.71,38.54,15.89.57.75,1.1,1.52,1.61,2.3l37.97-.21s.26-1.36-.47-6.18c-.52-3.42-1.33-6.31-1.31-6.22-11.27-32.44-38.56-44.84-76.33-44.84-51.89,0-85.68,22.19-85.68,87.39s38.58,93.53,85.68,93.53c26.06,0,48.78-8.77,63.72-27.69,13.26-14.29,73.12-96.83,73.12-96.83,7.77-12.03,22.47-17.14,41.35-17.14,30.72,0,47.79,14.34,47.79,48.14,0,35.84-18.43,54.27-47.79,54.27s-47.31-18.03-47.75-53.03l-31.8,39.01c12.65,36.89,43.58,53.28,79.54,53.28,47.11,0,85.69-27.99,85.69-93.53s-33.8-87.39-85.69-87.39Z"></path><path d="M606.19,108.22c-29.69,0-47.79,9.56-58.37,23.21-10.24-15.02-28.33-23.21-52.91-23.21s-38.91,8.53-46.77,17.75v-14.34h-37.89v174.1h37.89v-102.07c0-23.55,16.04-36.19,39.26-36.19s34.14,12.63,34.14,36.19v102.07h37.89v-102.07c0-23.55,16.39-36.19,39.26-36.19s34.14,12.63,34.14,36.19v102.07h37.89v-108.89c0-39.94-20.83-68.61-64.52-68.61Z"></path><path d="M890.11,108.22c-29.69,0-47.79,9.56-58.37,23.21-10.24-15.02-28.33-23.21-52.91-23.21s-38.91,8.53-46.77,17.75v-14.34h-37.89v174.1h37.89v-102.07c0-23.55,16.04-36.19,39.26-36.19s34.14,12.63,34.14,36.19v102.07h37.89v-102.07c0-23.55,16.39-36.19,39.26-36.19s34.14,12.63,34.14,36.19v102.07h37.89v-108.89c0-39.94-20.83-68.61-64.52-68.61Z"></path><path d="M1059.52,108.22c-51.89,0-85.68,22.19-85.68,87.39s38.58,93.53,85.68,93.53,85.69-27.99,85.69-93.53-33.8-87.39-85.69-87.39ZM1059.52,249.89c-29.36,0-47.79-18.43-47.79-54.27,0-33.8,17.07-48.14,47.79-48.14s47.79,14.34,47.79,48.14c0,35.84-18.43,54.27-47.79,54.27Z"></path><path d="M1442.52,108.22c-27.31,0-45.06,8.87-54.96,18.78v-15.36h-37.89v232.81h37.89v-75.1c11.95,11.95,27.99,19.8,51.89,19.8,44.03,0,81.58-27.99,81.58-93.53s-32.77-87.39-78.51-87.39ZM1435.36,249.89c-29.36,0-47.79-18.43-47.79-54.27,0-33.8,17.07-48.14,47.79-48.14s47.79,14.34,47.79,48.14c0,35.84-18.44,54.27-47.79,54.27Z"></path><rect x="1538.45" y="51.55" width="37.89" height="234.18"></rect><path d="M1675.33,108.22c-48.14,0-76.13,24.92-79.54,61.79h40.62c3.42-15.02,17.07-22.53,40.28-22.53,25.94,0,39.6,8.54,39.6,23.22,0,6.48-3.42,9.9-11.61,9.9h-44.72c-44.38,0-62.47,17.07-62.47,49.84,0,36.53,25.26,58.72,67.93,58.72,15.47,0,27.78-3.91,41.53-10.27,8.82-4.08,7.75-10.4,16.89-6.22,5.27,2.41,7.54,12.14,13.78,14.02,3.81,1.14,7.85,1.19,11.83,1.2,10.18.02,26.19-.15,36.37-.51-37.1-30.83-31.64-69.35-31.64-111.55,0-46.77-29.02-67.59-78.86-67.59ZM1716.29,222.24c0,20.14-17.41,30.38-46.08,30.38-22.53,0-34.82-7.85-34.82-22.19,0-12.63,9.56-16.39,28.33-16.39h31.07c9.22,0,17.41-2.73,21.5-9.56v17.75Z"></path><path d="M2116.72,195.95c0-63.83-31.75-87.73-83.3-87.73-44.8,0-65.33,17.28-85.12,61.56-3.73,8.35-15.08,44.49-42.09,65.01-6.92,5.26-27.64,16.33-50.99,15.09-29.31-1.56-47.79-18.43-47.79-54.27,0-33.8,17.07-48.14,47.79-48.14,23.22,0,37.55,8.54,42.67,27.65h38.57c-5.46-49.16-35.84-66.91-81.25-66.91-51.89,0-85.68,22.19-85.68,87.39s38.58,93.53,85.68,93.53c38.25,0,72.27-17.56,92.45-48.7,1.75-2.7,5.08-8.19,5.09-8.14l36.05-64.1c6.26-14.6,22.87-21.42,44.6-21.42,26.97,0,41.3,10.92,43.69,34.14h-79.55l-39.77,64.65c14.45,30.08,42.97,43.57,75.62,43.57,37.55,0,69.3-17.07,78.86-58.03h-41.99c-6.14,12.97-19.46,18.78-36.87,18.78-24.24,0-41.64-11.94-45.74-36.18h129.04v-17.75Z"></path><path d="M1252.91,108.98c-25.26,0-43.36,8.87-51.89,18.78v-15.36h-37.89v174.1h37.89v-95.92c0-27.31,18.09-42.33,45.06-42.33s39.94,15.36,39.94,42.33v95.92h37.89v-103.77c0-43.69-22.87-73.73-71-73.73Z"></path></svg>